<svg xmlns="http://www.w3.org/2000/svg" width="24" height="24" viewBox="0 0 24 24"><defs><linearGradient id="a" x1="-13.88%" x2="118.835%" y1="-14.778%" y2="119.809%"><stop offset="0%" stop-color="#12BDFD"/><stop offset="100%" stop-color="#9F79F3"/></linearGradient></defs><path fill="url(#a)" d="M21.534 17.043a.769.769 0 0 0-.854-.238 8.11 8.11 0 0 1-2.747.462c-4.65 0-8.433-3.785-8.433-8.434a8.407 8.407 0 0 1 3.695-6.97.768.768 0 0 0-.32-1.394A7.442 7.442 0 0 0 11.8.4C5.458.4.3 5.558.3 11.9s5.158 11.5 11.5 11.5c4.025 0 7.687-2.045 9.792-5.47a.772.772 0 0 0-.058-.887z" transform="translate(1)"/></svg>