<svg xmlns="http://www.w3.org/2000/svg" width="165" height="20" viewBox="0 0 165 20"><path fill="#FFF" fill-rule="evenodd" d="M125.549-.044l-7.746 20.383-.363.957 1.974.704.364-.956L127.523.66l.364-.957L125.912-1l-.363.956zm-61.856 0L55.948 20.34l-.364.957L57.56 22l.363-.956L65.668.66l.363-.957L64.057-1l-.364.956zm-55.67 0L.277 20.34l-.363.957L1.888 22l.364-.956L9.997.66l.364-.957L8.386-1l-.363.956zm123.711 0L123.99 20.34l-.364.957L125.6 22l.363-.956L133.71.66l.363-.957L132.098-1l-.364.956zm18.557 0l-7.746 20.383-.363.957 1.974.704.364-.956L152.265.66l.364-.957L150.654-1l-.363.956zm12.371 0l-7.745 20.383-.364.957 1.975.704.363-.956L164.637.66 165-.296 163.026-1l-.364.956zm-92.783 0L62.133 20.34l-.363.957 1.974.704.364-.956L71.853.66l.364-.957L70.242-1l-.363.956zm-55.67 0L6.463 20.34l-.363.957L8.074 22l.363-.956L16.183.66l.363-.957L14.572-1l-.363.956zm123.71 0l-7.745 20.383-.363.957 1.974.704.364-.956L139.894.66l.364-.957L138.283-1l-.363.956zm-61.855 0L68.32 20.34l-.364.957L69.93 22l.363-.956L78.04.66l.363-.957L76.428-1l-.364.956zm-55.67 0L12.65 20.34l-.364.957L14.26 22l.363-.956L22.369.66l.363-.957L20.758-1l-.364.956zm123.711 0L136.36 20.34l-.364.957 1.975.704.363-.956L146.08.66l.363-.957L144.47-1l-.364.956zm12.372 0L148.73 20.34l-.363.957 1.974.704.363-.956L158.451.66l.363-.957L156.84-1l-.363.956zm-74.227 0L74.504 20.34l-.363.957 1.974.704.364-.956L84.224.66l.364-.957L82.613-1l-.363.956zm-55.67 0L18.834 20.34l-.363.957 1.974.704.364-.956L28.554.66l.364-.957L26.943-1l-.363.956zm61.855 0L80.69 20.34l-.364.957 1.975.704.363-.956L90.41.66l.363-.957L88.8-1l-.364.956zm-55.67 0L25.02 20.34l-.364.957 1.975.704.363-.956L34.74.66l.363-.957L33.13-1l-.364.956zm61.856 0L86.875 20.34l-.363.957 1.974.704.364-.956L96.595.66l.364-.957L94.984-1l-.363.956zm-55.67 0L31.205 20.34l-.363.957 1.974.704.364-.956L40.925.66l.364-.957L39.314-1l-.363.956zm61.856 0L93.06 20.34l-.363.957 1.974.704.363-.956L102.781.66l.363-.957L101.17-1l-.363.956zm-55.67 0L37.39 20.34l-.364.957 1.975.704.363-.956L47.111.66l.363-.957L45.5-1l-.364.956zm61.855 0L99.247 20.34l-.364.957 1.975.704.363-.956L108.966.66l.364-.957L107.356-1l-.364.956zm-55.67 0L43.576 20.34l-.363.957 1.974.704.364-.956L53.296.66l.364-.957L51.685-1l-.363.956zm61.856 0l-7.746 20.383-.363.957 1.974.704.364-.956L115.152.66l.363-.957L113.541-1l-.363.956zm-55.67 0L49.762 20.34l-.363.957 1.974.704.363-.956L59.482.66l.363-.957L57.871-1l-.363.956zm61.855 0l-7.745 20.383-.364.957 1.975.704.363-.956L121.338.66l.363-.957L119.727-1l-.364.956z"/></svg>